<?xml version="1.0" encoding="UTF-8"?>
<svg id="Ebene_1" xmlns="http://www.w3.org/2000/svg" version="1.1" viewBox="0 0 370.35 54.3">
  <!-- Generator: Adobe Illustrator 30.1.0, SVG Export Plug-In . SVG Version: 2.1.1 Build 136)  -->
  <defs>
    <style>
      .st0 {
        fill: #fff;
      }

      .st1 {
        fill: none;
        stroke: #fff;
        stroke-width: 1.32px;
      }

      .st2 {
        fill: #fe1efa;
      }
    </style>
  </defs>
  <g>
    <path class="st2" d="M9.43,16.49h351.57c4.83,0,8.75,3.92,8.75,8.75v17.49c0,4.83-3.92,8.75-8.75,8.75H9.43c-4.83,0-8.75-3.92-8.75-8.75v-17.49c0-4.83,3.92-8.75,8.75-8.75Z"/>
    <path class="st0" d="M41.57,24.4c1.04-.46,1.77-1.45,1.86-2.65.14-1.72-1.16-3.23-2.92-3.35-1.73-.14-3.24,1.18-3.35,2.91-.03.53.06,1.04.26,1.49.86,1.97.84,2.39.16,4.46-.49,1.45-1.17,2.28-2.69,2.44-2.07.23-3.75,1.92-3.92,4.09-.16,2.44,1.66,4.54,4.09,4.72,2.43.18,4.56-1.66,4.74-4.09.08-1.14-.28-2.22-.94-3.06-1-1.26-1.24-1.98-.45-3.77.99-2.16,1.26-2.33,3.16-3.18"/>
    <path class="st0" d="M24.23,31.76c-.82-.79-2.01-1.1-3.16-.73-1.65.52-2.56,2.29-2.02,3.96.52,1.65,2.31,2.56,3.96,2.02.5-.17.95-.44,1.29-.8,1.5-1.54,1.9-1.67,4.07-1.82,1.53-.09,2.55.23,3.27,1.58.99,1.83,3.19,2.76,5.26,2.11,2.32-.77,3.58-3.24,2.84-5.56-.75-2.32-3.24-3.61-5.56-2.86-1.09.36-1.96,1.09-2.49,2.02-.79,1.4-1.37,1.89-3.33,1.83-2.37-.1-2.63-.3-4.13-1.74"/>
    <path class="st0" d="M38,33.54c0-.92-.49-1.79-1.35-2.25-1.23-.67-2.77-.2-3.45,1.05-.67,1.23-.19,2.79,1.05,3.45.38.2.79.3,1.19.3,1.74,0,2.04.17,3.35,1.35.92.84,1.3,1.62.92,2.8-.51,1.61.19,3.41,1.73,4.25,1.75.92,3.91.26,4.84-1.48.93-1.74.28-3.92-1.46-4.85-.82-.43-1.74-.53-2.58-.31-1.26.32-1.88.27-2.94-.91-1.28-1.44-1.31-1.7-1.32-3.39"/>
    <path class="st0" d="M69.91,34.94c-.03.32-.08.62-.17.91-.08.29-.19.56-.33.82-.67,1.19-1.67,2.09-2.85,2.66,0,0,0,0,0,0-.34-1.08-.61-2.19-.87-3.3-.06-.28-.13-.57-.19-.85-.45-1.89-.87-3.73-1.29-5.57.05,0-.14-.72-.09-.72,1.72-.09,3.78,1.17,4.81,2.69.14.2.27.4.39.61.44.84.66,1.8.59,2.75M57.22,33.9c-.03-.26-.03.4,0,.14.03-.26.34.21.43-.03.48-2.68,2.4-5.44,5.38-5,.77,3.34,1.73,7.39,2.53,10.72-.36.11-.74.2-1.12.25-.3.04-.61.08-.91.09-.61.02-1.28.06-1.89-.06-.3-.02-.61-.06-.91-.1-1.5-.23-2.96-.76-4.24-1.58-1.11-.7-2.11-1.64-2.67-2.82-.43-.92-.58-1.95-.53-2.97.19-3.7,2.92-6.74,5.74-9.14.74-.62,1.5-1.24,2.25-1.86.34,1.2.68,2.4.97,3.62.07.28.13.57.19.85,0,.03.01.06.02.09-.46.12-.91.29-1.34.51-2.16,1.09-4.17,4.62-4.07,7.04M60.6,12.05c.02-1.93.51-3.91,1.7-5.42.45-.57,1.01-1.08,1.69-1.31.68-.24,1.51-.16,2.04.33.69.62.73,1.69.56,2.6-.39,2.09-1.63,3.94-3.06,5.52-.77.85-1.6,1.65-2.46,2.41-.28-1.36-.48-2.74-.46-4.12M72.5,32.29c-.29-2.46-2.11-4.58-4.36-5.63-1.48-.7-3.17-.97-4.77-.74-.02-.1-.05-.2-.07-.29-.39-1.6-.79-3.19-1.17-4.79,1.82-1.56,3.51-3.22,4.58-5.33,1.96-3.85,1.5-8.58-.23-12.53-.49-1.12-1.31-2.35-2.53-2.33-.58,0-1.12.32-1.57.68-1.16.94-1.92,2.29-2.42,3.69-1.35,3.79-.89,7.99.06,11.9.01.05.02.09.04.14-2.27,1.95-4.65,3.8-6.52,6.13-1.4,1.73-2.51,3.77-2.79,5.98-.24,1.96.19,3.98,1.1,5.73,1.28,2.47,3.5,4.43,6.09,5.44,1.04.41,2.13.66,3.24.76.28.03.59.04.87.04,1.25.01,2.53-.15,3.75-.51.01.05.02.09.03.14.32,1.35.7,2.67,1.03,4.02.32,1.31.54,2.71.19,4.05-.33,1.23-1.24,2.29-2.39,2.82-.95.44-2.15.59-3.19.56-.61-.02-1.23-.16-1.74-.5-.3-.2-.59-.49-.75-.82.5-.02.97.2,1.53.05.48-.13.91-.42,1.24-.79.69-.76.98-1.86.7-2.85-.28-.99-1.1-1.79-2.07-2.1-.21-.06-.42-.1-.64-.12-2.47-.54-4.65,1.37-4.2,3.89.02.27.08.52.16.78.08.24.19.47.32.69,1.71,2.91,6.33,3.62,9.19,2.26,1.11-.53,2.07-1.42,2.59-2.54,1.04-2.21.3-4.59-.22-6.83-.23-1.01-.45-2.03-.73-3.03,0-.01,0-.02,0-.03,1.2-.47,2.33-1.14,3.3-2.02.23-.22.49-.47.69-.72,1.21-1.45,1.9-3.37,1.68-5.25"/>
  </g>
  <line class="st1" x1="19.18" y1="26.66" x2="63.02" y2="26.66"/>
  <line class="st1" x1="19.18" y1="34.05" x2="71.36" y2="34.05"/>
  <line class="st1" x1="19.18" y1="41.12" x2="66.29" y2="41.12"/>
  <path class="st0" d="M353.45,26.3h-2.99v7.44c.01.48.03.96.05,1.44.02.48.04.96.05,1.44.01.48.03.97.04,1.45h-.07l-6.82-11.77h-4.2v15.71h2.97v-7.39c-.02-.5-.03-1-.05-1.5-.02-.5-.04-1-.07-1.5-.02-.5-.05-1-.08-1.5h.09l6.84,11.88h4.22v-15.71ZM335.32,39.25h-5.72v-4.05h5.32v-2.73h-5.32v-3.45h5.72v-2.73h-9.04v15.71h9.04v-2.75ZM321.39,26.3h-2.99v7.44c.02.48.03.96.05,1.44.02.48.04.96.05,1.44.02.48.03.97.04,1.45h-.07l-6.82-11.77h-4.2v15.71h2.97v-7.39c-.01-.5-.03-1-.05-1.5-.02-.5-.04-1-.07-1.5-.02-.5-.05-1-.08-1.5h.09l6.84,11.88h4.22v-15.71ZM292.32,31.3c.27-.78.7-1.39,1.29-1.82.59-.42,1.34-.64,2.27-.64,1.41,0,2.41.47,3.01,1.41.6.94.9,2.23.9,3.87,0,1.09-.13,2.02-.4,2.82-.26.79-.69,1.4-1.27,1.82-.58.42-1.34.63-2.28.63s-1.66-.21-2.24-.63c-.59-.42-1.02-1.02-1.29-1.82-.27-.79-.41-1.73-.41-2.82s.14-2.04.41-2.83M302.54,29.87c-.53-1.21-1.35-2.15-2.45-2.82-1.11-.67-2.51-1-4.21-1s-3.13.33-4.23,1c-1.11.67-1.93,1.6-2.46,2.8-.54,1.2-.8,2.62-.8,4.25,0,1.23.15,2.34.45,3.33.3.99.76,1.85,1.36,2.56.61.72,1.39,1.27,2.33,1.65.95.38,2.06.57,3.33.57s2.41-.19,3.34-.57c.94-.38,1.71-.93,2.32-1.65.61-.72,1.06-1.57,1.36-2.56.3-.99.45-2.09.45-3.31,0-1.63-.26-3.05-.79-4.26M280.01,29.16c.41.16.71.4.91.7s.3.7.3,1.17c0,.84-.24,1.44-.73,1.8-.48.37-1.17.55-2.07.55h-1.39v-4.47h1.39c.64,0,1.17.08,1.58.24M273.68,26.3v15.71h3.37v-6.03h1.87l3.5,6.03h3.85l-4.47-6.93c.54-.25,1.03-.56,1.45-.95.42-.38.76-.84,1.01-1.39.25-.54.37-1.17.37-1.87,0-1.01-.22-1.86-.67-2.53-.45-.67-1.13-1.18-2.03-1.53-.91-.34-2.05-.52-3.43-.52h-4.82ZM269.01,26.3h-3.32v9.59c0,.81-.11,1.47-.32,2-.21.53-.55.92-1,1.17-.45.25-1.05.37-1.78.37-1.04,0-1.83-.26-2.35-.79s-.79-1.44-.79-2.73v-9.61h-3.32v10.12c0,1.75.54,3.15,1.63,4.21,1.09,1.06,2.67,1.6,4.75,1.6,1.47,0,2.68-.25,3.64-.76.96-.51,1.68-1.19,2.16-2.07.48-.87.72-1.85.72-2.94v-10.16ZM252.03,39.25h-5.72v-4.05h5.32v-2.73h-5.32v-3.45h5.72v-2.73h-9.04v15.71h9.04v-2.75ZM238.1,26.3h-2.99v7.44c.02.48.03.96.06,1.44.02.48.04.96.05,1.44.01.48.03.97.04,1.45h-.07l-6.82-11.77h-4.2v15.71h2.97v-7.39c-.01-.5-.03-1-.05-1.5-.02-.5-.04-1-.07-1.5-.02-.5-.05-1-.08-1.5h.09l6.84,11.88h4.22v-15.71ZM210.6,37.93c-.78.87-1.97,1.3-3.59,1.3h-1.41v-10.19h1.74c.97,0,1.78.18,2.44.54.66.36,1.15.91,1.48,1.64.33.73.49,1.66.49,2.79,0,1.75-.39,3.05-1.17,3.92M214.35,29.73c-.62-1.13-1.52-1.98-2.68-2.56-1.17-.58-2.58-.87-4.23-.87h-5.19v15.71h4.8c1.7,0,3.16-.3,4.39-.9,1.22-.6,2.17-1.5,2.85-2.71.67-1.2,1.01-2.71,1.01-4.51,0-1.64-.31-3.03-.93-4.16M198.39,26.3h-2.99v7.44c.01.48.03.96.05,1.44.02.48.04.96.05,1.44.01.48.03.97.04,1.45h-.07l-6.82-11.77h-4.2v15.71h2.97v-7.39c-.01-.5-.03-1-.05-1.5-.02-.5-.04-1-.07-1.5-.02-.5-.05-1-.08-1.5h.09l6.84,11.88h4.22v-15.71ZM180.62,26.3h-3.32v9.59c0,.81-.11,1.47-.32,2-.21.53-.55.92-1,1.17-.46.25-1.05.37-1.78.37-1.04,0-1.83-.26-2.35-.79-.53-.53-.79-1.44-.79-2.73v-9.61h-3.32v10.12c0,1.75.54,3.15,1.63,4.21,1.08,1.06,2.67,1.6,4.75,1.6,1.47,0,2.68-.25,3.64-.76.96-.51,1.68-1.19,2.16-2.07.48-.87.71-1.85.71-2.94v-10.16ZM158.16,26.3h-2.99v7.44c.02.48.03.96.05,1.44.02.48.04.96.05,1.44.02.48.03.97.04,1.45h-.07l-6.82-11.77h-4.2v15.71h2.97v-7.39c-.01-.5-.03-1-.06-1.5-.02-.5-.04-1-.07-1.5-.02-.5-.05-1-.08-1.5h.09l6.84,11.88h4.22v-15.71ZM140.95,39.25h-5.72v-4.05h5.32v-2.73h-5.32v-3.45h5.72v-2.73h-9.04v15.71h9.04v-2.75ZM125.27,29.09h4.25v-2.79h-11.86v2.79h4.25v12.91h3.37v-12.91ZM105.65,31.3c.27-.78.7-1.39,1.29-1.82.59-.42,1.34-.64,2.27-.64,1.41,0,2.41.47,3.01,1.41.6.94.9,2.23.9,3.87,0,1.09-.13,2.02-.4,2.82-.26.79-.69,1.4-1.26,1.82-.58.42-1.34.63-2.28.63s-1.66-.21-2.24-.63c-.59-.42-1.02-1.02-1.29-1.82-.27-.79-.41-1.73-.41-2.82s.13-2.04.41-2.83M115.87,29.87c-.53-1.21-1.35-2.15-2.45-2.82-1.11-.67-2.51-1-4.21-1s-3.13.33-4.24,1c-1.11.67-1.93,1.6-2.46,2.8-.54,1.2-.8,2.62-.8,4.25,0,1.23.15,2.34.45,3.33.3.99.76,1.85,1.36,2.56.61.72,1.39,1.27,2.33,1.65.95.38,2.06.57,3.33.57s2.4-.19,3.34-.57c.94-.38,1.71-.93,2.32-1.65.61-.72,1.06-1.57,1.36-2.56.3-.99.45-2.09.45-3.31,0-1.63-.26-3.05-.79-4.26M98.51,26.3h-2.99v7.44c.01.48.03.96.05,1.44.02.48.04.96.05,1.44.01.48.03.97.04,1.45h-.07l-6.82-11.77h-4.2v15.71h2.97v-7.39c-.01-.5-.03-1-.05-1.5-.02-.5-.04-1-.07-1.5-.02-.5-.05-1-.08-1.5h.09l6.84,11.88h4.22v-15.71Z"/>
</svg>