<?xml version="1.0" encoding="UTF-8"?>
<svg id="Ebene_1" xmlns="http://www.w3.org/2000/svg" version="1.1" viewBox="0 0 218.11 285.63">
  <!-- Generator: Adobe Illustrator 30.1.0, SVG Export Plug-In . SVG Version: 2.1.1 Build 136)  -->
  <defs>
    <style>
      .st0 {
        stroke: #fff;
        stroke-width: 4.31px;
      }

      .st0, .st1 {
        fill: none;
      }

      .st2 {
        fill: #fff;
      }

      .st3 {
        fill: #fe1efa;
      }

      .st1 {
        stroke: #fe1efa;
        stroke-width: 3.16px;
      }
    </style>
  </defs>
  <g>
    <path class="st3" d="M18.68,3.64h180.62c8.23,0,14.9,6.68,14.9,14.9v248.64c0,8.23-6.68,14.9-14.9,14.9H18.68c-8.23,0-14.91-6.68-14.91-14.91V18.54c0-8.23,6.68-14.91,14.91-14.91Z"/>
    <path class="st1" d="M18.68,3.64h180.62c8.23,0,14.9,6.68,14.9,14.9v248.64c0,8.23-6.68,14.9-14.9,14.9H18.68c-8.23,0-14.91-6.68-14.91-14.91V18.54c0-8.23,6.68-14.91,14.91-14.91Z"/>
    <path class="st2" d="M92.91,95.86c3.4-1.51,5.78-4.72,6.06-8.65.44-5.62-3.79-10.53-9.5-10.93-5.62-.44-10.56,3.85-10.93,9.5-.1,1.72.18,3.4.85,4.87,2.82,6.41,2.73,7.77.53,14.53-1.59,4.74-3.83,7.43-8.77,7.96-6.75.76-12.22,6.27-12.78,13.32-.52,7.95,5.42,14.79,13.35,15.37,7.92.58,14.86-5.4,15.43-13.32.26-3.72-.9-7.25-3.07-9.99-3.26-4.1-4.06-6.45-1.45-12.29,3.21-7.04,4.12-7.6,10.29-10.38"/>
    <path class="st2" d="M36.42,119.86c-2.67-2.59-6.54-3.6-10.29-2.38-5.38,1.7-8.34,7.45-6.58,12.9,1.7,5.38,7.52,8.35,12.91,6.58,1.64-.55,3.08-1.44,4.2-2.61,4.89-5.02,6.18-5.44,13.27-5.93,4.99-.3,8.33.76,10.66,5.15,3.23,5.97,10.4,8.98,17.14,6.86,7.56-2.5,11.68-10.57,9.26-18.13-2.43-7.56-10.57-11.75-18.13-9.32-3.54,1.16-6.39,3.55-8.11,6.59-2.58,4.56-4.46,6.18-10.85,5.95-7.73-.34-8.59-.97-13.48-5.66"/>
    <path class="st2" d="M81.3,125.66c0-3.01-1.59-5.84-4.41-7.34-4.02-2.18-9.04-.67-11.23,3.43-2.18,4.02-.63,9.08,3.43,11.23,1.24.64,2.58.98,3.89.98,5.68.03,6.66.54,10.93,4.4,2.98,2.74,4.24,5.28,3,9.12-1.67,5.24.61,11.12,5.65,13.86,5.71,3,12.74.86,15.78-4.81,3.04-5.67.9-12.78-4.77-15.82-2.67-1.42-5.67-1.73-8.41-1.02-4.11,1.06-6.11.88-9.58-2.97-4.16-4.7-4.27-5.55-4.29-11.04"/>
    <path class="st2" d="M185.3,130.23c-.09,1.04-.27,2.02-.54,2.96-.27.94-.63,1.83-1.07,2.66-2.19,3.87-5.46,6.8-9.28,8.68,0,0,0-.01,0-.02-1.1-3.53-2-7.13-2.83-10.74-.21-.9-.42-1.85-.62-2.77-1.46-6.15-2.84-12.14-4.21-18.14.16-.01-.45-2.36-.29-2.37,5.6-.29,12.32,3.82,15.66,8.77.47.63.9,1.3,1.26,1.99,1.45,2.75,2.17,5.88,1.91,8.98M143.93,126.84c-.11-.86-.1,1.31.01.47.11-.84,1.11.7,1.41-.1,1.58-8.74,7.84-17.72,17.55-16.3,2.49,10.87,5.64,24.09,8.24,34.94-1.18.37-2.4.64-3.64.82-.97.14-1.97.27-2.97.3-1.99.05-4.17.19-6.17-.21-.99-.07-1.97-.18-2.95-.33-4.9-.75-9.65-2.49-13.83-5.15-3.61-2.29-6.87-5.33-8.7-9.2-1.41-2.99-1.91-6.36-1.74-9.67.61-12.05,9.51-21.97,18.71-29.78,2.4-2.04,4.88-4.04,7.33-6.07,1.12,3.92,2.21,7.84,3.16,11.8.22.92.43,1.84.63,2.76.02.1.05.2.07.3-1.5.41-2.96.96-4.36,1.66-7.04,3.56-13.6,15.05-13.25,22.93M154.95,55.62c.08-6.29,1.66-12.73,5.54-17.67,1.46-1.85,3.28-3.51,5.51-4.28,2.23-.77,4.9-.52,6.65,1.07,2.24,2.03,2.38,5.5,1.82,8.47-1.29,6.83-5.32,12.84-9.98,18-2.51,2.78-5.23,5.37-8.03,7.87-.9-4.44-1.57-8.92-1.51-13.44M193.73,121.59c-.93-8.03-6.88-14.92-14.19-18.36-4.81-2.27-10.32-3.15-15.55-2.41-.08-.32-.15-.64-.23-.96-1.28-5.21-2.56-10.41-3.81-15.62,5.92-5.07,11.42-10.51,14.94-17.39,6.4-12.54,4.9-27.95-.74-40.85-1.59-3.64-4.28-7.65-8.26-7.59-1.9.03-3.65,1.03-5.13,2.23-3.77,3.06-6.27,7.46-7.89,12.04-4.39,12.36-2.9,26.05.19,38.8.04.15.08.31.11.46-7.42,6.35-15.15,12.38-21.26,19.97-4.56,5.65-8.2,12.28-9.09,19.49-.79,6.39.63,12.96,3.59,18.67,4.17,8.05,11.41,14.43,19.85,17.73,3.38,1.32,6.94,2.15,10.55,2.49.9.09,1.91.12,2.83.15,4.07.04,8.23-.5,12.23-1.66.03.15.07.3.11.45,1.05,4.38,2.3,8.71,3.37,13.09,1.06,4.29,1.77,8.84.61,13.18-1.07,4.02-4.03,7.47-7.8,9.21-3.1,1.43-7.02,1.93-10.41,1.82-1.99-.07-4.01-.53-5.66-1.64-.99-.67-1.91-1.6-2.45-2.67,1.64-.06,3.17.66,4.97.16,1.57-.44,2.97-1.37,4.06-2.57,2.24-2.47,3.19-6.07,2.27-9.3-.91-3.21-3.57-5.84-6.74-6.83-.69-.2-1.37-.34-2.09-.41-8.04-1.75-15.16,4.48-13.69,12.68.08.87.26,1.69.52,2.55.26.78.61,1.53,1.04,2.26,5.57,9.49,20.61,11.81,29.95,7.36,3.63-1.73,6.75-4.62,8.45-8.27,3.38-7.22.97-14.97-.72-22.25-.76-3.3-1.48-6.62-2.38-9.89,0-.03-.02-.06-.03-.09,3.91-1.53,7.58-3.71,10.76-6.57.75-.71,1.6-1.55,2.25-2.34,3.94-4.73,6.19-11,5.48-17.11"/>
  </g>
  <line class="st0" x1="19.94" y1="103.23" x2="162.84" y2="103.23"/>
  <line class="st0" x1="19.94" y1="127.3" x2="190.03" y2="127.3"/>
  <line class="st0" x1="19.94" y1="150.37" x2="173.48" y2="150.37"/>
  <g>
    <path class="st2" d="M193.39,242.03h-4v9.94c.02.65.04,1.29.07,1.93.03.64.05,1.28.07,1.93.02.65.04,1.29.06,1.94h-.09l-9.12-15.74h-5.62v21h3.97v-9.88c-.02-.67-.04-1.33-.07-2-.03-.67-.06-1.33-.09-2-.03-.67-.06-1.33-.1-2h.12l9.15,15.88h5.65v-21ZM169.16,259.35h-7.65v-5.41h7.12v-3.65h-7.12v-4.62h7.65v-3.65h-12.09v21h12.09v-3.68ZM150.54,242.03h-4v9.94c.02.65.04,1.29.07,1.93.03.64.05,1.28.07,1.93.02.65.04,1.29.06,1.94h-.09l-9.12-15.74h-5.62v21h3.97v-9.88c-.02-.67-.04-1.33-.07-2-.03-.67-.06-1.33-.09-2-.03-.67-.06-1.33-.1-2h.12l9.15,15.88h5.65v-21ZM111.68,248.72c.36-1.05.94-1.86,1.72-2.43.78-.57,1.79-.85,3.03-.85,1.88,0,3.23.63,4.03,1.88.8,1.26,1.21,2.98,1.21,5.18,0,1.45-.18,2.71-.53,3.77-.35,1.06-.92,1.87-1.69,2.43-.78.56-1.79.84-3.04.84s-2.22-.28-3-.84c-.78-.56-1.36-1.37-1.72-2.43-.36-1.06-.54-2.31-.54-3.77s.18-2.73.54-3.78M125.34,246.81c-.71-1.62-1.8-2.87-3.28-3.76-1.48-.89-3.36-1.34-5.63-1.34s-4.18.45-5.66,1.34c-1.48.89-2.58,2.14-3.29,3.75-.72,1.61-1.07,3.5-1.07,5.68,0,1.65.2,3.13.6,4.46.4,1.32,1.01,2.47,1.82,3.43.81.96,1.85,1.7,3.12,2.2,1.26.51,2.75.76,4.46.76s3.22-.25,4.47-.76c1.26-.51,2.29-1.24,3.1-2.2.81-.96,1.42-2.1,1.82-3.43.4-1.32.6-2.8.6-4.43,0-2.18-.35-4.07-1.06-5.69M95.22,245.85c.55.22.96.53,1.22.94.27.41.4.93.4,1.56,0,1.12-.32,1.92-.97,2.41s-1.57.73-2.76.73h-1.85v-5.97h1.85c.86,0,1.57.11,2.12.32M86.75,242.03v21h4.5v-8.06h2.5l4.68,8.06h5.15l-5.97-9.26c.72-.33,1.37-.76,1.94-1.27.57-.51,1.02-1.13,1.35-1.85.33-.72.5-1.56.5-2.5,0-1.35-.3-2.48-.9-3.38-.6-.9-1.51-1.58-2.72-2.04-1.22-.46-2.74-.69-4.59-.69h-6.44ZM80.52,242.03h-4.44v12.82c0,1.08-.14,1.97-.43,2.68-.29.71-.73,1.23-1.34,1.56-.61.33-1.4.5-2.38.5-1.39,0-2.44-.35-3.15-1.06-.71-.71-1.06-1.92-1.06-3.65v-12.85h-4.44v13.53c0,2.33.72,4.21,2.18,5.63,1.45,1.42,3.57,2.13,6.35,2.13,1.96,0,3.58-.34,4.87-1.01,1.28-.68,2.24-1.6,2.88-2.77.64-1.17.96-2.48.96-3.93v-13.59ZM57.81,259.35h-7.65v-5.41h7.12v-3.65h-7.12v-4.62h7.65v-3.65h-12.09v21h12.09v-3.68ZM39.2,242.03h-4v9.94c.02.65.04,1.29.07,1.93.03.64.05,1.28.07,1.93.02.65.04,1.29.06,1.94h-.09l-9.12-15.74h-5.62v21h3.97v-9.88c-.02-.67-.04-1.33-.07-2-.03-.67-.06-1.33-.09-2-.03-.67-.06-1.33-.1-2h.12l9.15,15.88h5.65v-21Z"/>
    <path class="st2" d="M77.75,226.86c-1.04,1.16-2.64,1.73-4.79,1.73h-1.88v-13.62h2.32c1.29,0,2.38.24,3.27.72.88.48,1.54,1.21,1.98,2.19.44.98.66,2.23.66,3.74,0,2.33-.52,4.08-1.56,5.23M82.77,215.89c-.83-1.51-2.03-2.65-3.59-3.43-1.56-.77-3.45-1.16-5.66-1.16h-6.94v21h6.41c2.27,0,4.23-.4,5.87-1.21,1.64-.8,2.91-2.01,3.81-3.62.9-1.61,1.35-3.62,1.35-6.03,0-2.2-.42-4.05-1.25-5.56M61.43,211.3h-4v9.94c.02.65.04,1.29.07,1.93.03.64.05,1.28.07,1.93.02.65.04,1.29.06,1.94h-.09l-9.12-15.74h-5.62v21h3.97v-9.88c-.02-.67-.04-1.33-.07-2-.03-.67-.06-1.33-.09-2-.03-.67-.06-1.33-.1-2h.12l9.15,15.88h5.65v-21ZM37.67,211.3h-4.44v12.82c0,1.08-.14,1.97-.43,2.68-.29.71-.73,1.23-1.34,1.56-.61.33-1.4.5-2.38.5-1.39,0-2.44-.35-3.15-1.06s-1.06-1.92-1.06-3.65v-12.85h-4.44v13.53c0,2.33.73,4.21,2.18,5.63,1.45,1.42,3.57,2.13,6.35,2.13,1.96,0,3.58-.34,4.87-1.01,1.28-.68,2.24-1.6,2.88-2.77.64-1.17.96-2.48.96-3.93v-13.59Z"/>
    <path class="st2" d="M118.93,180.57h-4v9.94c.02.65.04,1.29.07,1.93.03.64.05,1.28.07,1.93.02.65.04,1.29.06,1.94h-.09l-9.12-15.74h-5.62v21h3.97v-9.88c-.02-.67-.04-1.33-.07-2-.03-.67-.06-1.33-.09-2-.03-.67-.06-1.33-.1-2h.12l9.15,15.88h5.65v-21ZM95.93,197.89h-7.65v-5.41h7.12v-3.65h-7.12v-4.62h7.65v-3.65h-12.09v21h12.09v-3.68ZM74.96,184.3h5.68v-3.74h-15.85v3.74h5.68v17.26h4.5v-17.26ZM48.74,187.26c.36-1.05.94-1.86,1.72-2.43.78-.57,1.79-.85,3.03-.85,1.88,0,3.22.63,4.03,1.88s1.21,2.98,1.21,5.18c0,1.45-.18,2.71-.53,3.77-.35,1.06-.92,1.87-1.69,2.43-.78.56-1.79.84-3.04.84s-2.22-.28-3-.84c-.79-.56-1.36-1.37-1.72-2.43-.36-1.06-.54-2.31-.54-3.77s.18-2.73.54-3.78M62.4,185.34c-.71-1.62-1.8-2.87-3.28-3.76-1.48-.89-3.36-1.34-5.63-1.34s-4.18.45-5.66,1.34c-1.48.89-2.58,2.14-3.29,3.75-.72,1.61-1.07,3.5-1.07,5.68,0,1.65.2,3.13.6,4.46.4,1.32,1.01,2.47,1.82,3.43.81.96,1.85,1.7,3.12,2.2,1.27.51,2.75.76,4.46.76s3.21-.25,4.47-.76c1.26-.51,2.29-1.24,3.1-2.2.81-.96,1.42-2.1,1.82-3.43.4-1.32.6-2.8.6-4.43,0-2.18-.35-4.07-1.06-5.69M39.2,180.57h-4v9.94c.02.65.04,1.29.07,1.93.03.64.05,1.28.07,1.93.02.65.04,1.29.06,1.94h-.09l-9.12-15.74h-5.62v21h3.97v-9.88c-.02-.67-.04-1.33-.07-2-.03-.67-.06-1.33-.09-2-.03-.67-.06-1.33-.1-2h.12l9.15,15.88h5.65v-21Z"/>
  </g>
</svg>